<svg width="44" height="44" viewBox="0 0 44 44" fill="none" xmlns="http://www.w3.org/2000/svg">
<circle cx="22" cy="22" r="22" fill="#FFC102"/>
<path d="M8.83399 15.9194C8.83399 14.8149 9.72942 13.9194 10.834 13.9194H31.9351C33.0576 13.9194 34.1341 14.3653 34.9278 15.159C35.7215 15.9527 36.1674 17.0292 36.1674 18.1517C36.1674 19.2741 35.7215 20.3506 34.9278 21.1443C34.1341 21.938 33.0576 22.3839 31.9351 22.3839H30.1689C29.4844 25.0462 27.8517 28.2448 25.5774 29.7887C23.3031 31.3327 21.4251 31.9936 18.6981 31.6472C15.9711 31.3009 13.4643 29.9712 11.6481 27.9077C9.83191 25.8443 8.83127 22.3113 8.83399 19.5624V15.9194ZM30.5244 19.5624H31.9351C32.3093 19.5624 32.6681 19.4138 32.9327 19.1492C33.1972 18.8847 33.3459 18.5258 33.3459 18.1517C33.3459 17.7775 33.1972 17.4187 32.9327 17.1541C32.6681 16.8896 32.3093 16.7409 31.9351 16.7409H30.5244V19.5624Z" fill="white"/>
</svg>
