<svg width="44" height="45" viewBox="0 0 44 45" fill="none" xmlns="http://www.w3.org/2000/svg">
<circle cx="22" cy="22.1548" r="22" fill="#FFC102"/>
<path d="M15.4988 11.049C9.28974 14.6338 7.15474 22.6018 10.7395 28.8108C14.3243 35.0199 22.2922 37.1549 28.5013 33.5701C34.7103 29.9853 36.8453 22.0173 33.2605 15.8083C29.6757 9.59922 21.7078 7.46421 15.4988 11.049ZM15.8068 25.8853C14.8744 26.4236 13.6808 26.1037 13.1425 25.1714C12.6042 24.239 12.924 23.0454 13.8564 22.5071C14.7887 21.9688 15.9823 22.2886 16.5206 23.221C17.0589 24.1534 16.7391 25.347 15.8068 25.8853Z" fill="white"/>
<path fill-rule="evenodd" clip-rule="evenodd" d="M16.7078 17.9697C16.4029 18.4154 16.3124 18.716 16.3025 18.7917C16.2115 19.4876 15.5735 19.978 14.8775 19.887C14.1816 19.7959 13.6912 19.1579 13.7822 18.462C13.8645 17.8333 14.1894 17.1493 14.6098 16.5346C15.0488 15.8929 15.6613 15.2244 16.4385 14.6365C18.0074 13.4497 20.2624 12.5837 23.0946 12.9558C23.7905 13.0473 24.2805 13.6856 24.1891 14.3815C24.0976 15.0774 23.4593 15.5674 22.7634 15.476C20.6633 15.2 19.0671 15.8351 17.9719 16.6636C17.417 17.0834 16.9941 17.551 16.7078 17.9697Z" fill="#FFC102"/>
</svg>
