<svg width="68" height="75" viewBox="0 0 68 75" fill="none" xmlns="http://www.w3.org/2000/svg">
<path d="M41.1274 49.3021C41.1274 55.2322 37.9364 60.0395 34 60.0395C30.0636 60.0395 26.8726 55.2322 26.8726 49.3021C26.8726 43.372 30.0636 38.5647 34 38.5647C37.9364 38.5647 41.1274 43.372 41.1274 49.3021Z" fill="#03C43C"/>
<g filter="url(#filter0_d_823_22535)">
<path fill-rule="evenodd" clip-rule="evenodd" d="M39.8748 57.4038C50.2896 54.8004 58 45.4344 58 34.2793C58 21.1106 47.2548 10.4353 34 10.4353C20.7452 10.4353 10 21.1106 10 34.2793C10 45.4344 17.7104 54.8004 28.1252 57.4038C30.0019 61.1119 32.621 64.1233 34 64.4353C35.379 64.1233 37.9981 61.1119 39.8748 57.4038Z" fill="#03C43C"/>
</g>
<ellipse cx="34" cy="34.2795" rx="18" ry="17.883" fill="white"/>
<path d="M45.6973 33.5246C46.7544 32.9995 47.4222 31.926 47.4222 30.7519V30.4335C47.4222 28.7211 46.0253 27.3333 44.3016 27.3333C42.9584 27.3333 41.7663 28.1872 41.3413 29.4529C41.0192 30.4127 40.8547 31.3342 39.7427 31.3342H28.2542C27.1056 31.3342 26.9295 30.2697 26.6555 29.4529C26.231 28.1872 25.0384 27.3333 23.6956 27.3333C21.972 27.3333 20.5751 28.7211 20.5751 30.4335V30.7519C20.5751 31.926 21.2429 32.9995 22.3 33.5246C22.6956 33.7209 22.6956 34.2819 22.3 34.4782C21.2429 35.0033 20.5751 36.0769 20.5751 37.2509V37.5693C20.5751 39.2818 21.972 40.6696 23.6952 40.6696C25.0384 40.6696 26.2306 39.8156 26.6555 38.5499C26.9777 37.5901 27.1421 36.6687 28.2542 36.6687H39.7427C40.8912 36.6687 41.0674 37.7331 41.3413 38.5499C41.7663 39.8156 42.9589 40.6696 44.3016 40.6696C46.0249 40.6696 47.4218 39.2818 47.4218 37.5693V37.2509C47.4218 36.0765 46.754 35.0033 45.6969 34.4782C45.3017 34.2819 45.3017 33.7209 45.6973 33.5246Z" fill="#03C43C"/>
<defs>
<filter id="filter0_d_823_22535" x="0" y="0.435303" width="68" height="74" filterUnits="userSpaceOnUse" color-interpolation-filters="sRGB">
<feFlood flood-opacity="0" result="BackgroundImageFix"/>
<feColorMatrix in="SourceAlpha" type="matrix" values="0 0 0 0 0 0 0 0 0 0 0 0 0 0 0 0 0 0 127 0" result="hardAlpha"/>
<feOffset/>
<feGaussianBlur stdDeviation="5"/>
<feComposite in2="hardAlpha" operator="out"/>
<feColorMatrix type="matrix" values="0 0 0 0 0.0378125 0 0 0 0 0.275 0 0 0 0 0.0615312 0 0 0 0.25 0"/>
<feBlend mode="normal" in2="BackgroundImageFix" result="effect1_dropShadow_823_22535"/>
<feBlend mode="normal" in="SourceGraphic" in2="effect1_dropShadow_823_22535" result="shape"/>
</filter>
</defs>
</svg>
