<svg width="48" height="55" viewBox="0 0 48 55" fill="none" xmlns="http://www.w3.org/2000/svg">
<g clip-path="url(#clip0_823_22535)">
<path d="M31.1274 39.3021C31.1274 45.2322 27.9364 50.0395 24 50.0395C20.0636 50.0395 16.8726 45.2322 16.8726 39.3021C16.8726 33.372 20.0636 28.5647 24 28.5647C27.9364 28.5647 31.1274 33.372 31.1274 39.3021Z" fill="#03C43C"/>
<g filter="url(#filter0_d_823_22535)">
<path fill-rule="evenodd" clip-rule="evenodd" d="M29.8748 47.4038C40.2896 44.8004 48 35.4344 48 24.2793C48 11.1106 37.2548 0.435303 24 0.435303C10.7452 0.435303 0 11.1106 0 24.2793C0 35.4344 7.71036 44.8004 18.1252 47.4038C20.0019 51.1119 22.621 54.1233 24 54.4353C25.379 54.1233 27.9981 51.1119 29.8748 47.4038Z" fill="#03C43C"/>
</g>
<ellipse cx="24" cy="24.2795" rx="18" ry="17.883" fill="white"/>
<path d="M35.6973 23.5246C36.7544 22.9995 37.4222 21.926 37.4222 20.7519V20.4335C37.4222 18.7211 36.0253 17.3333 34.3016 17.3333C32.9584 17.3333 31.7663 18.1872 31.3413 19.4529C31.0192 20.4127 30.8547 21.3342 29.7427 21.3342H18.2542C17.1056 21.3342 16.9295 20.2697 16.6555 19.4529C16.231 18.1872 15.0384 17.3333 13.6956 17.3333C11.972 17.3333 10.5751 18.7211 10.5751 20.4335V20.7519C10.5751 21.926 11.2429 22.9995 12.3 23.5246C12.6956 23.7209 12.6956 24.2819 12.3 24.4782C11.2429 25.0033 10.5751 26.0769 10.5751 27.2509V27.5693C10.5751 29.2818 11.972 30.6696 13.6952 30.6696C15.0384 30.6696 16.2306 29.8156 16.6555 28.5499C16.9777 27.5901 17.1421 26.6687 18.2542 26.6687H29.7427C30.8912 26.6687 31.0674 27.7331 31.3413 28.5499C31.7663 29.8156 32.9589 30.6696 34.3016 30.6696C36.0249 30.6696 37.4218 29.2818 37.4218 27.5693V27.2509C37.4218 26.0765 36.754 25.0033 35.6969 24.4782C35.3017 24.2819 35.3017 23.7209 35.6973 23.5246Z" fill="#03C43C"/>
</g>
<defs>
<filter id="filter0_d_823_22535" x="-10" y="-9.5647" width="68" height="74" filterUnits="userSpaceOnUse" color-interpolation-filters="sRGB">
<feFlood flood-opacity="0" result="BackgroundImageFix"/>
<feColorMatrix in="SourceAlpha" type="matrix" values="0 0 0 0 0 0 0 0 0 0 0 0 0 0 0 0 0 0 127 0" result="hardAlpha"/>
<feOffset/>
<feGaussianBlur stdDeviation="5"/>
<feComposite in2="hardAlpha" operator="out"/>
<feColorMatrix type="matrix" values="0 0 0 0 0.0378125 0 0 0 0 0.275 0 0 0 0 0.0615312 0 0 0 0.25 0"/>
<feBlend mode="normal" in2="BackgroundImageFix" result="effect1_dropShadow_823_22535"/>
<feBlend mode="normal" in="SourceGraphic" in2="effect1_dropShadow_823_22535" result="shape"/>
</filter>
<clipPath id="clip0_823_22535">
<rect width="48" height="54" fill="white" transform="translate(0 0.435303)"/>
</clipPath>
</defs>
</svg>
