<svg width="68" height="75" viewBox="0 0 68 75" fill="none" xmlns="http://www.w3.org/2000/svg">
<path d="M41.1274 49.3021C41.1274 55.2322 37.9364 60.0395 34 60.0395C30.0636 60.0395 26.8726 55.2322 26.8726 49.3021C26.8726 43.372 30.0636 38.5647 34 38.5647C37.9364 38.5647 41.1274 43.372 41.1274 49.3021Z" fill="#03C43C"/>
<g filter="url(#filter0_d_823_22533)">
<path fill-rule="evenodd" clip-rule="evenodd" d="M39.8748 57.4038C50.2896 54.8004 58 45.4344 58 34.2793C58 21.1106 47.2548 10.4353 34 10.4353C20.7452 10.4353 10 21.1106 10 34.2793C10 45.4344 17.7104 54.8004 28.1252 57.4038C30.0019 61.1119 32.621 64.1233 34 64.4353C35.379 64.1233 37.9981 61.1119 39.8748 57.4038Z" fill="#03C43C"/>
</g>
<ellipse cx="34" cy="34.2793" rx="18" ry="17.883" fill="white"/>
<path fill-rule="evenodd" clip-rule="evenodd" d="M33.408 42.1817L28.8044 44.6944C28.1826 45.0338 27.4135 44.7856 27.0866 44.14C26.9564 43.883 26.9115 43.5885 26.9588 43.3022L27.838 37.9802C27.9088 37.5518 27.7719 37.1146 27.4721 36.8112L23.7478 33.0421C23.2447 32.533 23.2344 31.6969 23.7248 31.1746C23.9201 30.9666 24.1759 30.8312 24.4528 30.7895L29.5997 30.013C30.014 29.9505 30.3722 29.6803 30.5575 29.2906L32.8592 24.4484C33.1702 23.7943 33.9329 23.5258 34.5629 23.8486C34.8138 23.9771 35.0168 24.1879 35.1406 24.4484L37.4424 29.2906C37.6277 29.6803 37.9858 29.9505 38.4002 30.013L43.5471 30.7895C44.2423 30.8944 44.724 31.5645 44.623 32.2863C44.5828 32.5737 44.4524 32.8394 44.2521 33.0421L40.5277 36.8112C40.2279 37.1146 40.0911 37.5518 40.1619 37.9802L41.0411 43.3022C41.1598 44.0211 40.6948 44.7038 40.0024 44.8271C39.7267 44.8762 39.443 44.8296 39.1954 44.6944L34.5919 42.1817C34.2213 41.9794 33.7786 41.9794 33.408 42.1817Z" fill="#03C43C"/>
<defs>
<filter id="filter0_d_823_22533" x="0" y="0.435303" width="68" height="74" filterUnits="userSpaceOnUse" color-interpolation-filters="sRGB">
<feFlood flood-opacity="0" result="BackgroundImageFix"/>
<feColorMatrix in="SourceAlpha" type="matrix" values="0 0 0 0 0 0 0 0 0 0 0 0 0 0 0 0 0 0 127 0" result="hardAlpha"/>
<feOffset/>
<feGaussianBlur stdDeviation="5"/>
<feComposite in2="hardAlpha" operator="out"/>
<feColorMatrix type="matrix" values="0 0 0 0 0.0378125 0 0 0 0 0.275 0 0 0 0 0.0615312 0 0 0 0.25 0"/>
<feBlend mode="normal" in2="BackgroundImageFix" result="effect1_dropShadow_823_22533"/>
<feBlend mode="normal" in="SourceGraphic" in2="effect1_dropShadow_823_22533" result="shape"/>
</filter>
</defs>
</svg>
