<svg width="68" height="75" viewBox="0 0 68 75" fill="none" xmlns="http://www.w3.org/2000/svg">
<path d="M41.1274 49.0494C41.1274 54.941 37.9364 59.7171 34 59.7171C30.0636 59.7171 26.8726 54.941 26.8726 49.0494C26.8726 43.1579 30.0636 38.3818 34 38.3818C37.9364 38.3818 41.1274 43.1579 41.1274 49.0494Z" fill="#03C43C"/>
<g filter="url(#filter0_d_991_15932)">
<path fill-rule="evenodd" clip-rule="evenodd" d="M39.8748 57.0986C50.2896 54.5121 58 45.207 58 34.1244C58 21.0413 47.2548 10.4353 34 10.4353C20.7452 10.4353 10 21.0413 10 34.1244C10 45.207 17.7104 54.5121 28.1252 57.0986C30.0019 60.7826 32.621 63.7744 34 64.0844C35.379 63.7744 37.9981 60.7826 39.8748 57.0986Z" fill="#03C43C"/>
</g>
<ellipse cx="34" cy="34.1245" rx="18" ry="17.7668" fill="white"/>
<path fill-rule="evenodd" clip-rule="evenodd" d="M31.0882 23.3508C29.9349 23.3508 29 24.2857 29 25.439V36.018H24.8067C22.973 36.018 22.1741 38.336 23.6185 39.4658L32.3117 46.2655C33.0098 46.8115 33.9901 46.8115 34.6882 46.2655L43.3815 39.4658C44.8258 38.336 44.027 36.018 42.1932 36.018H38V25.439C38 24.2857 37.0651 23.3508 35.9118 23.3508H31.0882Z" fill="#03C43C"/>
<defs>
<filter id="filter0_d_991_15932" x="0" y="0.435303" width="68" height="73.6492" filterUnits="userSpaceOnUse" color-interpolation-filters="sRGB">
<feFlood flood-opacity="0" result="BackgroundImageFix"/>
<feColorMatrix in="SourceAlpha" type="matrix" values="0 0 0 0 0 0 0 0 0 0 0 0 0 0 0 0 0 0 127 0" result="hardAlpha"/>
<feOffset/>
<feGaussianBlur stdDeviation="5"/>
<feComposite in2="hardAlpha" operator="out"/>
<feColorMatrix type="matrix" values="0 0 0 0 0.0378125 0 0 0 0 0.275 0 0 0 0 0.0615312 0 0 0 0.25 0"/>
<feBlend mode="normal" in2="BackgroundImageFix" result="effect1_dropShadow_991_15932"/>
<feBlend mode="normal" in="SourceGraphic" in2="effect1_dropShadow_991_15932" result="shape"/>
</filter>
</defs>
</svg>
