<svg width="44" height="44" viewBox="0 0 44 44" fill="none" xmlns="http://www.w3.org/2000/svg">
<circle cx="22" cy="22" r="22" fill="#FFC102"/>
<path fill-rule="evenodd" clip-rule="evenodd" d="M25.7732 15.4836C25.4683 15.9294 25.3779 16.23 25.368 16.3056C25.2769 17.0016 24.6389 17.4919 23.943 17.4009C23.247 17.3099 22.7566 16.6719 22.8477 15.9759C22.9299 15.3472 23.2548 14.6632 23.6753 14.0486C24.1142 13.4069 24.7267 12.7383 25.5039 12.1504C27.0728 10.9636 29.3278 10.0976 32.16 10.4698C32.8559 10.5612 33.3459 11.1995 33.2545 11.8954C33.163 12.5913 32.5248 13.0813 31.8289 12.9899C29.7287 12.7139 28.1326 13.349 27.0373 14.1775C26.4824 14.5973 26.0596 15.065 25.7732 15.4836Z" fill="white"/>
<path d="M15.0748 35.4684C13.7057 36.3532 11.9099 35.3164 11.9917 33.6883L12.8227 17.1418C12.8977 15.6484 14.5252 14.7624 15.8202 15.5101L28.9034 23.0637C30.1984 23.8113 30.2449 25.6638 28.989 26.4754L15.0748 35.4684Z" fill="white"/>
<circle cx="29.4309" cy="17.7588" r="2.08423" fill="white"/>
<path fill-rule="evenodd" clip-rule="evenodd" d="M19.3144 8.33802C19.7149 7.95776 20.3479 7.97419 20.7282 8.37472C21.6008 9.29388 21.9074 10.5006 21.995 11.4783C22.0833 12.4632 21.9636 13.3675 21.8388 13.8465C21.6996 14.381 21.1535 14.7014 20.6191 14.5622C20.0846 14.423 19.7642 13.8769 19.9034 13.3425C19.9711 13.0823 20.0704 12.4088 20.003 11.6568C19.9349 10.8977 19.7112 10.2083 19.2777 9.75175C18.8975 9.35123 18.9139 8.71827 19.3144 8.33802Z" fill="white"/>
</svg>
