<svg width="44" height="44" viewBox="0 0 44 44" fill="none" xmlns="http://www.w3.org/2000/svg">
<circle cx="22" cy="22" r="22" fill="#FFC102"/>
<path fill-rule="evenodd" clip-rule="evenodd" d="M21.2764 31.7218L15.6499 34.813C14.8898 35.2306 13.9498 34.9252 13.5503 34.131C13.3912 33.8148 13.3362 33.4525 13.394 33.1003L14.4686 26.553C14.5551 26.026 14.3879 25.4882 14.0215 25.115L9.46951 20.4782C8.85464 19.8519 8.84206 18.8232 9.44141 18.1807C9.68007 17.9248 9.99279 17.7583 10.3311 17.7069L16.6218 16.7517C17.1282 16.6748 17.566 16.3425 17.7924 15.8629L20.6057 9.90602C20.9857 9.10139 21.918 8.77102 22.688 9.16813C22.9946 9.32627 23.2427 9.58561 23.3941 9.90602L26.2074 15.8629C26.4338 16.3425 26.8716 16.6748 27.378 16.7517L33.6686 17.7069C34.5184 17.836 35.1071 18.6604 34.9836 19.5484C34.9345 19.902 34.7751 20.2288 34.5303 20.4782L29.9783 25.115C29.6119 25.4882 29.4447 26.026 29.5312 26.553L30.6057 33.1003C30.7509 33.9847 30.1825 34.8246 29.3362 34.9763C28.9992 35.0367 28.6526 34.9793 28.3499 34.813L22.7234 31.7218C22.2704 31.473 21.7294 31.473 21.2764 31.7218Z" fill="white"/>
</svg>
