<svg width="68" height="75" viewBox="0 0 68 75" fill="none" xmlns="http://www.w3.org/2000/svg">
<path d="M41.1274 49.3021C41.1274 55.2322 37.9364 60.0395 34 60.0395C30.0636 60.0395 26.8726 55.2322 26.8726 49.3021C26.8726 43.372 30.0636 38.5647 34 38.5647C37.9364 38.5647 41.1274 43.372 41.1274 49.3021Z" fill="#03C43C"/>
<g filter="url(#filter0_d_823_22534)">
<path fill-rule="evenodd" clip-rule="evenodd" d="M39.8748 57.4038C50.2896 54.8004 58 45.4344 58 34.2793C58 21.1106 47.2548 10.4353 34 10.4353C20.7452 10.4353 10 21.1106 10 34.2793C10 45.4344 17.7104 54.8004 28.1252 57.4038C30.0019 61.1119 32.621 64.1233 34 64.4353C35.379 64.1233 37.9981 61.1119 39.8748 57.4038Z" fill="#03C43C"/>
</g>
<ellipse cx="34" cy="34.2795" rx="18" ry="17.883" fill="white"/>
<path fill-rule="evenodd" clip-rule="evenodd" d="M24.7868 39.2857C21.8538 34.2386 23.6006 27.7617 28.6808 24.8478C33.7609 21.9338 40.2801 23.6693 43.2131 28.7164C46.1461 33.7636 44.3993 40.2404 39.3192 43.1544C34.239 46.0684 27.7198 44.3329 24.7868 39.2857ZM26.7529 36.3274C27.1933 37.0852 28.1699 37.3452 28.9327 36.9076C29.6956 36.4701 29.9573 35.4998 29.5168 34.742C29.0764 33.9841 28.0998 33.7241 27.337 34.1617C26.5741 34.5992 26.3125 35.5695 26.7529 36.3274ZM29.3384 31.1414C29.3465 31.0799 29.4205 30.8355 29.6699 30.4732C29.9042 30.1329 30.2502 29.7528 30.7042 29.4116C31.6003 28.7381 32.9063 28.2218 34.6246 28.4461C35.1939 28.5205 35.7162 28.1222 35.791 27.5565C35.8658 26.9908 35.4649 26.472 34.8955 26.3976C32.5783 26.0951 30.7332 26.7991 29.4496 27.7638C28.8137 28.2416 28.3126 28.7851 27.9535 29.3067C27.6095 29.8063 27.3436 30.3623 27.2763 30.8734C27.2018 31.4391 27.6031 31.9577 28.1725 32.0317C28.7419 32.1057 29.2639 31.7071 29.3384 31.1414Z" fill="#03C43C"/>
<defs>
<filter id="filter0_d_823_22534" x="0" y="0.435303" width="68" height="74" filterUnits="userSpaceOnUse" color-interpolation-filters="sRGB">
<feFlood flood-opacity="0" result="BackgroundImageFix"/>
<feColorMatrix in="SourceAlpha" type="matrix" values="0 0 0 0 0 0 0 0 0 0 0 0 0 0 0 0 0 0 127 0" result="hardAlpha"/>
<feOffset/>
<feGaussianBlur stdDeviation="5"/>
<feComposite in2="hardAlpha" operator="out"/>
<feColorMatrix type="matrix" values="0 0 0 0 0.0378125 0 0 0 0 0.275 0 0 0 0 0.0615312 0 0 0 0.25 0"/>
<feBlend mode="normal" in2="BackgroundImageFix" result="effect1_dropShadow_823_22534"/>
<feBlend mode="normal" in="SourceGraphic" in2="effect1_dropShadow_823_22534" result="shape"/>
</filter>
</defs>
</svg>
