<svg width="48" height="55" viewBox="0 0 48 55" fill="none" xmlns="http://www.w3.org/2000/svg">
<g clip-path="url(#clip0_823_22534)">
<path d="M31.1274 39.3021C31.1274 45.2322 27.9364 50.0395 24 50.0395C20.0636 50.0395 16.8726 45.2322 16.8726 39.3021C16.8726 33.372 20.0636 28.5647 24 28.5647C27.9364 28.5647 31.1274 33.372 31.1274 39.3021Z" fill="#03C43C"/>
<g filter="url(#filter0_d_823_22534)">
<path fill-rule="evenodd" clip-rule="evenodd" d="M29.8748 47.4038C40.2896 44.8004 48 35.4344 48 24.2793C48 11.1106 37.2548 0.435303 24 0.435303C10.7452 0.435303 0 11.1106 0 24.2793C0 35.4344 7.71036 44.8004 18.1252 47.4038C20.0019 51.1119 22.621 54.1233 24 54.4353C25.379 54.1233 27.9981 51.1119 29.8748 47.4038Z" fill="#03C43C"/>
</g>
<ellipse cx="24" cy="24.2795" rx="18" ry="17.883" fill="white"/>
<path fill-rule="evenodd" clip-rule="evenodd" d="M14.7868 29.2857C11.8538 24.2386 13.6006 17.7617 18.6808 14.8478C23.7609 11.9338 30.2801 13.6693 33.2131 18.7164C36.1461 23.7636 34.3993 30.2404 29.3192 33.1544C24.239 36.0684 17.7198 34.3329 14.7868 29.2857ZM16.7529 26.3274C17.1933 27.0852 18.1699 27.3452 18.9327 26.9076C19.6956 26.4701 19.9573 25.4998 19.5168 24.742C19.0764 23.9841 18.0998 23.7241 17.337 24.1617C16.5741 24.5992 16.3125 25.5695 16.7529 26.3274ZM19.3384 21.1414C19.3465 21.0799 19.4205 20.8355 19.6699 20.4732C19.9042 20.1329 20.2502 19.7528 20.7042 19.4116C21.6003 18.7381 22.9063 18.2218 24.6246 18.4461C25.1939 18.5205 25.7162 18.1222 25.791 17.5565C25.8658 16.9908 25.4649 16.472 24.8955 16.3976C22.5783 16.0951 20.7332 16.7991 19.4496 17.7638C18.8137 18.2416 18.3126 18.7851 17.9535 19.3067C17.6095 19.8063 17.3436 20.3623 17.2763 20.8734C17.2018 21.4391 17.6031 21.9577 18.1725 22.0317C18.7419 22.1057 19.2639 21.7071 19.3384 21.1414Z" fill="#03C43C"/>
</g>
<defs>
<filter id="filter0_d_823_22534" x="-10" y="-9.5647" width="68" height="74" filterUnits="userSpaceOnUse" color-interpolation-filters="sRGB">
<feFlood flood-opacity="0" result="BackgroundImageFix"/>
<feColorMatrix in="SourceAlpha" type="matrix" values="0 0 0 0 0 0 0 0 0 0 0 0 0 0 0 0 0 0 127 0" result="hardAlpha"/>
<feOffset/>
<feGaussianBlur stdDeviation="5"/>
<feComposite in2="hardAlpha" operator="out"/>
<feColorMatrix type="matrix" values="0 0 0 0 0.0378125 0 0 0 0 0.275 0 0 0 0 0.0615312 0 0 0 0.25 0"/>
<feBlend mode="normal" in2="BackgroundImageFix" result="effect1_dropShadow_823_22534"/>
<feBlend mode="normal" in="SourceGraphic" in2="effect1_dropShadow_823_22534" result="shape"/>
</filter>
<clipPath id="clip0_823_22534">
<rect width="48" height="54" fill="white" transform="translate(0 0.435303)"/>
</clipPath>
</defs>
</svg>
