<svg width="48" height="49" viewBox="0 0 48 49" fill="none" xmlns="http://www.w3.org/2000/svg">
<g filter="url(#filter0_d_823_22528)">
<circle cx="24" cy="24.4353" r="14" fill="#03C43C"/>
<circle cx="24" cy="24.4353" r="10.5" fill="white"/>
</g>
<path d="M30.4985 24.1687C31.0858 23.8751 31.4568 23.2747 31.4568 22.6182V22.4402C31.4568 21.4826 30.6808 20.7065 29.7232 20.7065C28.977 20.7065 28.3146 21.1841 28.0786 21.8918C27.8996 22.4285 27.8082 22.9438 27.1904 22.9438H20.8079C20.1698 22.9438 20.072 22.3486 19.9198 21.8918C19.6839 21.1841 19.0214 20.7065 18.2754 20.7065C17.3178 20.7065 16.5417 21.4826 16.5417 22.4402V22.6182C16.5417 23.2747 16.9128 23.8751 17.5 24.1687C17.7198 24.2785 17.7198 24.5922 17.5 24.7019C16.9128 24.9956 16.5417 25.5959 16.5417 26.2524V26.4304C16.5417 27.388 17.3178 28.1641 18.2752 28.1641C19.0214 28.1641 19.6837 27.6866 19.9198 26.9788C20.0988 26.4421 20.1901 25.9268 20.8079 25.9268H27.1904C27.8285 25.9268 27.9264 26.522 28.0786 26.9788C28.3146 27.6866 28.9772 28.1641 29.7232 28.1641C30.6805 28.1641 31.4566 27.388 31.4566 26.4304V26.2524C31.4566 25.5957 31.0856 24.9956 30.4983 24.7019C30.2788 24.5922 30.2788 24.2785 30.4985 24.1687Z" fill="#03C43C"/>
<defs>
<filter id="filter0_d_823_22528" x="0" y="0.435303" width="48" height="48" filterUnits="userSpaceOnUse" color-interpolation-filters="sRGB">
<feFlood flood-opacity="0" result="BackgroundImageFix"/>
<feColorMatrix in="SourceAlpha" type="matrix" values="0 0 0 0 0 0 0 0 0 0 0 0 0 0 0 0 0 0 127 0" result="hardAlpha"/>
<feOffset/>
<feGaussianBlur stdDeviation="5"/>
<feComposite in2="hardAlpha" operator="out"/>
<feColorMatrix type="matrix" values="0 0 0 0 0.0378125 0 0 0 0 0.275 0 0 0 0 0.0615312 0 0 0 0.25 0"/>
<feBlend mode="normal" in2="BackgroundImageFix" result="effect1_dropShadow_823_22528"/>
<feBlend mode="normal" in="SourceGraphic" in2="effect1_dropShadow_823_22528" result="shape"/>
</filter>
</defs>
</svg>
