<svg width="44" height="44" viewBox="0 0 44 44" fill="none" xmlns="http://www.w3.org/2000/svg">
<ellipse cx="21.9961" cy="21.9229" rx="21.9961" ry="21.9229" fill="#FFC102"/>
<path fill-rule="evenodd" clip-rule="evenodd" d="M21.8622 32.7238C20.5851 34.1508 17.1501 36.3585 13.7515 33.3945C8.36932 28.7005 16.6239 20.5925 21.7558 20.3621V20.3569C21.7936 20.3569 21.8316 20.3574 21.8698 20.3583C21.9056 20.3575 21.9412 20.3571 21.9766 20.3571V20.362C27.1085 20.5931 35.3631 28.7253 29.9809 33.4008C26.5752 36.3593 23.1329 34.1449 21.8622 32.7238Z" fill="white"/>
<ellipse cx="9.60443" cy="20.6032" rx="3.59759" ry="3.68912" fill="white"/>
<ellipse cx="17.0273" cy="13.8067" rx="3.82465" ry="3.92195" fill="white"/>
<ellipse cx="26.743" cy="13.8066" rx="3.8245" ry="3.9218" fill="white"/>
<ellipse cx="34.15" cy="20.5899" rx="3.5846" ry="3.6758" fill="white"/>
</svg>
