<svg width="48" height="49" viewBox="0 0 48 49" fill="none" xmlns="http://www.w3.org/2000/svg">
<g filter="url(#filter0_d_823_22530)">
<circle cx="24" cy="24.4353" r="14" fill="#03C43C"/>
<circle cx="24" cy="24.4353" r="10.5" fill="white"/>
</g>
<path fill-rule="evenodd" clip-rule="evenodd" d="M25.7151 21.4732C25.5765 21.6758 25.5354 21.8124 25.5309 21.8468C25.4895 22.1632 25.1995 22.3861 24.8831 22.3447C24.5668 22.3033 24.3439 22.0133 24.3853 21.697C24.4227 21.4112 24.5704 21.1003 24.7615 20.8209C24.961 20.5292 25.2394 20.2253 25.5927 19.9581C26.3058 19.4187 27.3308 19.025 28.6182 19.1942C28.9345 19.2357 29.1572 19.5259 29.1157 19.8422C29.0741 20.1585 28.784 20.3812 28.4676 20.3397C27.513 20.2142 26.7875 20.5029 26.2897 20.8795C26.0374 21.0703 25.8452 21.2829 25.7151 21.4732Z" fill="#03C43C"/>
<path d="M20.8521 30.5573C20.2298 30.9595 19.4135 30.4882 19.4507 29.7482L19.8284 22.227C19.8625 21.5482 20.6023 21.1455 21.1909 21.4853L27.1378 24.9188C27.7265 25.2586 27.7476 26.1006 27.1767 26.4696L20.8521 30.5573Z" fill="#03C43C"/>
<ellipse cx="27.3777" cy="22.5074" rx="0.947379" ry="0.947379" fill="#03C43C"/>
<path fill-rule="evenodd" clip-rule="evenodd" d="M22.7793 18.2252C22.9613 18.0524 23.249 18.0599 23.4219 18.2419C23.8185 18.6597 23.9579 19.2082 23.9977 19.6526C24.0379 20.1003 23.9834 20.5114 23.9267 20.7291C23.8635 20.972 23.6152 21.1177 23.3723 21.0544C23.1294 20.9912 22.9837 20.7429 23.047 20.5C23.0778 20.3817 23.1229 20.0756 23.0923 19.7338C23.0613 19.3887 22.9596 19.0754 22.7626 18.8679C22.5898 18.6858 22.5972 18.3981 22.7793 18.2252Z" fill="#03C43C"/>
<defs>
<filter id="filter0_d_823_22530" x="0" y="0.435303" width="48" height="48" filterUnits="userSpaceOnUse" color-interpolation-filters="sRGB">
<feFlood flood-opacity="0" result="BackgroundImageFix"/>
<feColorMatrix in="SourceAlpha" type="matrix" values="0 0 0 0 0 0 0 0 0 0 0 0 0 0 0 0 0 0 127 0" result="hardAlpha"/>
<feOffset/>
<feGaussianBlur stdDeviation="5"/>
<feComposite in2="hardAlpha" operator="out"/>
<feColorMatrix type="matrix" values="0 0 0 0 0.0378125 0 0 0 0 0.275 0 0 0 0 0.0615312 0 0 0 0.25 0"/>
<feBlend mode="normal" in2="BackgroundImageFix" result="effect1_dropShadow_823_22530"/>
<feBlend mode="normal" in="SourceGraphic" in2="effect1_dropShadow_823_22530" result="shape"/>
</filter>
</defs>
</svg>
