<svg width="48" height="49" viewBox="0 0 48 49" fill="none" xmlns="http://www.w3.org/2000/svg">
<g filter="url(#filter0_d_823_22527)">
<circle cx="24" cy="24.4353" r="14" fill="#03C43C"/>
<circle cx="24" cy="24.4353" r="10.5" fill="white"/>
</g>
<path d="M18.0155 22.6919C18.0155 21.5873 18.9109 20.6919 20.0155 20.6919H28.516C29.0262 20.6919 29.5155 20.8946 29.8763 21.2553C30.2371 21.6161 30.4398 22.1054 30.4398 22.6156C30.4398 23.1259 30.2371 23.6152 29.8763 23.9759C29.5155 24.3367 29.0262 24.5394 28.516 24.5394H27.7132C27.402 25.7495 26.6599 27.2034 25.6261 27.9052C24.5924 28.607 23.7387 28.9074 22.4992 28.75C21.2596 28.5926 20.1202 27.9882 19.2946 27.0502C18.4691 26.1123 18.0143 24.5064 18.0155 23.2569V22.6919ZM27.8748 23.2569H28.516C28.6861 23.2569 28.8492 23.1893 28.9694 23.0691C29.0897 22.9488 29.1573 22.7857 29.1573 22.6156C29.1573 22.4456 29.0897 22.2825 28.9694 22.1622C28.8492 22.042 28.6861 21.9744 28.516 21.9744H27.8748V23.2569Z" fill="#03C43C"/>
<defs>
<filter id="filter0_d_823_22527" x="0" y="0.435303" width="48" height="48" filterUnits="userSpaceOnUse" color-interpolation-filters="sRGB">
<feFlood flood-opacity="0" result="BackgroundImageFix"/>
<feColorMatrix in="SourceAlpha" type="matrix" values="0 0 0 0 0 0 0 0 0 0 0 0 0 0 0 0 0 0 127 0" result="hardAlpha"/>
<feOffset/>
<feGaussianBlur stdDeviation="5"/>
<feComposite in2="hardAlpha" operator="out"/>
<feColorMatrix type="matrix" values="0 0 0 0 0.0378125 0 0 0 0 0.275 0 0 0 0 0.0615312 0 0 0 0.25 0"/>
<feBlend mode="normal" in2="BackgroundImageFix" result="effect1_dropShadow_823_22527"/>
<feBlend mode="normal" in="SourceGraphic" in2="effect1_dropShadow_823_22527" result="shape"/>
</filter>
</defs>
</svg>
