<svg width="68" height="75" viewBox="0 0 68 75" fill="none" xmlns="http://www.w3.org/2000/svg">
<path d="M41.1274 49.3021C41.1274 55.2322 37.9364 60.0395 34 60.0395C30.0636 60.0395 26.8726 55.2322 26.8726 49.3021C26.8726 43.372 30.0636 38.5647 34 38.5647C37.9364 38.5647 41.1274 43.372 41.1274 49.3021Z" fill="#03C43C"/>
<g filter="url(#filter0_d_823_22532)">
<path fill-rule="evenodd" clip-rule="evenodd" d="M39.8748 57.4038C50.2896 54.8004 58 45.4344 58 34.2793C58 21.1106 47.2548 10.4353 34 10.4353C20.7452 10.4353 10 21.1106 10 34.2793C10 45.4344 17.7104 54.8004 28.1252 57.4038C30.0019 61.1119 32.621 64.1233 34 64.4353C35.379 64.1233 37.9981 61.1119 39.8748 57.4038Z" fill="#03C43C"/>
</g>
<ellipse cx="34" cy="34.2793" rx="18" ry="17.883" fill="white"/>
<path fill-rule="evenodd" clip-rule="evenodd" d="M37.0872 28.9823C36.8377 29.3446 36.7637 29.589 36.7556 29.6504C36.6812 30.2162 36.1592 30.6148 35.5897 30.5408C35.0203 30.4668 34.6191 29.9482 34.6936 29.3824C34.7609 28.8714 35.0267 28.3154 35.3707 27.8158C35.7299 27.2942 36.231 26.7507 36.8669 26.2728C38.1505 25.3081 39.9955 24.6042 42.3128 24.9067C42.8821 24.981 43.2831 25.4999 43.2082 26.0655C43.1334 26.6312 42.6112 27.0295 42.0418 26.9552C40.3235 26.7309 39.0176 27.2472 38.1215 27.9206C37.6675 28.2618 37.3215 28.642 37.0872 28.9823Z" fill="#03C43C"/>
<path d="M28.334 45.227C27.2138 45.9463 25.7445 45.1035 25.8114 43.7801L26.4913 30.33C26.5527 29.1161 27.8843 28.3959 28.9438 29.0036L39.6483 35.1437C40.7078 35.7515 40.7459 37.2572 39.7183 37.917L28.334 45.227Z" fill="#03C43C"/>
<ellipse cx="40.0799" cy="30.8317" rx="1.70528" ry="1.6942" fill="#03C43C"/>
<path fill-rule="evenodd" clip-rule="evenodd" d="M31.8027 23.1738C32.1304 22.8647 32.6483 22.8781 32.9594 23.2036C33.6734 23.9508 33.9242 24.9317 33.9959 25.7264C34.0681 26.527 33.9702 27.2621 33.8681 27.6515C33.7542 28.0859 33.3074 28.3464 32.8702 28.2332C32.4329 28.1201 32.1707 27.6762 32.2846 27.2417C32.34 27.0303 32.4212 26.4828 32.3661 25.8716C32.3104 25.2545 32.1273 24.6941 31.7727 24.323C31.4616 23.9974 31.475 23.4829 31.8027 23.1738Z" fill="#03C43C"/>
<defs>
<filter id="filter0_d_823_22532" x="0" y="0.435303" width="68" height="74" filterUnits="userSpaceOnUse" color-interpolation-filters="sRGB">
<feFlood flood-opacity="0" result="BackgroundImageFix"/>
<feColorMatrix in="SourceAlpha" type="matrix" values="0 0 0 0 0 0 0 0 0 0 0 0 0 0 0 0 0 0 127 0" result="hardAlpha"/>
<feOffset/>
<feGaussianBlur stdDeviation="5"/>
<feComposite in2="hardAlpha" operator="out"/>
<feColorMatrix type="matrix" values="0 0 0 0 0.0378125 0 0 0 0 0.275 0 0 0 0 0.0615312 0 0 0 0.25 0"/>
<feBlend mode="normal" in2="BackgroundImageFix" result="effect1_dropShadow_823_22532"/>
<feBlend mode="normal" in="SourceGraphic" in2="effect1_dropShadow_823_22532" result="shape"/>
</filter>
</defs>
</svg>
