<svg width="48" height="55" viewBox="0 0 48 55" fill="none" xmlns="http://www.w3.org/2000/svg">
<g clip-path="url(#clip0_823_22532)">
<path d="M31.1274 39.3021C31.1274 45.2322 27.9364 50.0395 24 50.0395C20.0636 50.0395 16.8726 45.2322 16.8726 39.3021C16.8726 33.372 20.0636 28.5647 24 28.5647C27.9364 28.5647 31.1274 33.372 31.1274 39.3021Z" fill="#03C43C"/>
<g filter="url(#filter0_d_823_22532)">
<path fill-rule="evenodd" clip-rule="evenodd" d="M29.8748 47.4038C40.2896 44.8004 48 35.4344 48 24.2793C48 11.1106 37.2548 0.435303 24 0.435303C10.7452 0.435303 0 11.1106 0 24.2793C0 35.4344 7.71036 44.8004 18.1252 47.4038C20.0019 51.1119 22.621 54.1233 24 54.4353C25.379 54.1233 27.9981 51.1119 29.8748 47.4038Z" fill="#03C43C"/>
</g>
<ellipse cx="24" cy="24.2793" rx="18" ry="17.883" fill="white"/>
<path fill-rule="evenodd" clip-rule="evenodd" d="M27.0872 18.9823C26.8377 19.3446 26.7637 19.589 26.7556 19.6504C26.6812 20.2162 26.1592 20.6148 25.5897 20.5408C25.0203 20.4668 24.6191 19.9482 24.6936 19.3824C24.7609 18.8714 25.0267 18.3154 25.3707 17.8158C25.7299 17.2942 26.231 16.7507 26.8669 16.2728C28.1505 15.3081 29.9955 14.6042 32.3128 14.9067C32.8821 14.981 33.2831 15.4999 33.2082 16.0655C33.1334 16.6312 32.6112 17.0295 32.0418 16.9552C30.3235 16.7309 29.0176 17.2472 28.1215 17.9206C27.6675 18.2618 27.3215 18.642 27.0872 18.9823Z" fill="#03C43C"/>
<path d="M18.334 35.227C17.2138 35.9463 15.7445 35.1035 15.8114 33.7801L16.4913 20.33C16.5527 19.1161 17.8843 18.3959 18.9438 19.0036L29.6483 25.1437C30.7078 25.7515 30.7459 27.2572 29.7183 27.917L18.334 35.227Z" fill="#03C43C"/>
<ellipse cx="30.0799" cy="20.8317" rx="1.70528" ry="1.6942" fill="#03C43C"/>
<path fill-rule="evenodd" clip-rule="evenodd" d="M21.8027 13.1738C22.1304 12.8647 22.6483 12.8781 22.9594 13.2036C23.6734 13.9508 23.9242 14.9317 23.9959 15.7264C24.0681 16.527 23.9702 17.2621 23.8681 17.6515C23.7542 18.0859 23.3074 18.3464 22.8702 18.2332C22.4329 18.1201 22.1707 17.6762 22.2846 17.2417C22.34 17.0303 22.4212 16.4828 22.3661 15.8716C22.3104 15.2545 22.1273 14.6941 21.7727 14.323C21.4616 13.9974 21.475 13.4829 21.8027 13.1738Z" fill="#03C43C"/>
</g>
<defs>
<filter id="filter0_d_823_22532" x="-10" y="-9.5647" width="68" height="74" filterUnits="userSpaceOnUse" color-interpolation-filters="sRGB">
<feFlood flood-opacity="0" result="BackgroundImageFix"/>
<feColorMatrix in="SourceAlpha" type="matrix" values="0 0 0 0 0 0 0 0 0 0 0 0 0 0 0 0 0 0 127 0" result="hardAlpha"/>
<feOffset/>
<feGaussianBlur stdDeviation="5"/>
<feComposite in2="hardAlpha" operator="out"/>
<feColorMatrix type="matrix" values="0 0 0 0 0.0378125 0 0 0 0 0.275 0 0 0 0 0.0615312 0 0 0 0.25 0"/>
<feBlend mode="normal" in2="BackgroundImageFix" result="effect1_dropShadow_823_22532"/>
<feBlend mode="normal" in="SourceGraphic" in2="effect1_dropShadow_823_22532" result="shape"/>
</filter>
<clipPath id="clip0_823_22532">
<rect width="48" height="54" fill="white" transform="translate(0 0.435303)"/>
</clipPath>
</defs>
</svg>
