<svg width="48" height="55" viewBox="0 0 48 55" fill="none" xmlns="http://www.w3.org/2000/svg">
<g clip-path="url(#clip0_823_22537)">
<path d="M31.1274 39.3021C31.1274 45.2322 27.9364 50.0395 24 50.0395C20.0636 50.0395 16.8726 45.2322 16.8726 39.3021C16.8726 33.372 20.0636 28.5647 24 28.5647C27.9364 28.5647 31.1274 33.372 31.1274 39.3021Z" fill="#03C43C"/>
<g filter="url(#filter0_d_823_22537)">
<path fill-rule="evenodd" clip-rule="evenodd" d="M29.8748 47.4038C40.2896 44.8004 48 35.4344 48 24.2793C48 11.1106 37.2548 0.435303 24 0.435303C10.7452 0.435303 0 11.1106 0 24.2793C0 35.4344 7.71036 44.8004 18.1252 47.4038C20.0019 51.1119 22.621 54.1233 24 54.4353C25.379 54.1233 27.9981 51.1119 29.8748 47.4038Z" fill="#03C43C"/>
</g>
<ellipse cx="24" cy="24.2795" rx="18" ry="17.883" fill="white"/>
<path fill-rule="evenodd" clip-rule="evenodd" d="M23.6674 32.6859C22.6223 33.8499 19.8114 35.6508 17.0303 33.233C12.6258 29.404 19.3808 22.7901 23.5804 22.6021V22.5979C23.6113 22.5979 23.6424 22.5983 23.6736 22.599C23.7029 22.5984 23.7321 22.598 23.7611 22.598V22.602C27.9607 22.7905 34.7156 29.4242 30.3112 33.2381C27.5242 35.6514 24.7073 33.8451 23.6674 32.6859Z" fill="#03C43C"/>
<ellipse cx="13.6364" cy="22.7986" rx="2.94401" ry="3.00931" fill="#03C43C"/>
<ellipse cx="19.7109" cy="17.2547" rx="3.12981" ry="3.19923" fill="#03C43C"/>
<ellipse cx="27.6617" cy="17.2545" rx="3.12969" ry="3.19911" fill="#03C43C"/>
<ellipse cx="33.7228" cy="22.7877" rx="2.93338" ry="2.99844" fill="#03C43C"/>
</g>
<defs>
<filter id="filter0_d_823_22537" x="-10" y="-9.5647" width="68" height="74" filterUnits="userSpaceOnUse" color-interpolation-filters="sRGB">
<feFlood flood-opacity="0" result="BackgroundImageFix"/>
<feColorMatrix in="SourceAlpha" type="matrix" values="0 0 0 0 0 0 0 0 0 0 0 0 0 0 0 0 0 0 127 0" result="hardAlpha"/>
<feOffset/>
<feGaussianBlur stdDeviation="5"/>
<feComposite in2="hardAlpha" operator="out"/>
<feColorMatrix type="matrix" values="0 0 0 0 0.0378125 0 0 0 0 0.275 0 0 0 0 0.0615312 0 0 0 0.25 0"/>
<feBlend mode="normal" in2="BackgroundImageFix" result="effect1_dropShadow_823_22537"/>
<feBlend mode="normal" in="SourceGraphic" in2="effect1_dropShadow_823_22537" result="shape"/>
</filter>
<clipPath id="clip0_823_22537">
<rect width="48" height="54" fill="white" transform="translate(0 0.435303)"/>
</clipPath>
</defs>
</svg>
