<svg width="68" height="75" viewBox="0 0 68 75" fill="none" xmlns="http://www.w3.org/2000/svg">
<path d="M41.1274 49.3021C41.1274 55.2322 37.9364 60.0395 34 60.0395C30.0636 60.0395 26.8726 55.2322 26.8726 49.3021C26.8726 43.372 30.0636 38.5647 34 38.5647C37.9364 38.5647 41.1274 43.372 41.1274 49.3021Z" fill="#03C43C"/>
<g filter="url(#filter0_d_823_22536)">
<path fill-rule="evenodd" clip-rule="evenodd" d="M39.8748 57.4038C50.2896 54.8004 58 45.4344 58 34.2793C58 21.1106 47.2548 10.4353 34 10.4353C20.7452 10.4353 10 21.1106 10 34.2793C10 45.4344 17.7104 54.8004 28.1252 57.4038C30.0019 61.1119 32.621 64.1233 34 64.4353C35.379 64.1233 37.9981 61.1119 39.8748 57.4038Z" fill="#03C43C"/>
</g>
<ellipse cx="34" cy="34.2795" rx="18" ry="17.883" fill="white"/>
<path d="M23.2279 29.3069C23.2279 28.2023 24.1233 27.3069 25.2279 27.3069H42.1288C43.0472 27.3069 43.928 27.6693 44.5774 28.3145C45.2268 28.9597 45.5916 29.8347 45.5916 30.7471C45.5916 31.6595 45.2268 32.5346 44.5774 33.1798C43.928 33.8249 43.0472 34.1874 42.1288 34.1874H40.6837C40.1237 36.3515 38.7879 38.9514 36.9271 40.2065C35.0663 41.4615 33.5297 41.9987 31.2985 41.7172C29.0674 41.4357 27.0163 40.3548 25.5303 38.6775C24.0444 37.0002 23.2257 34.1284 23.2279 31.8939V29.3069ZM40.9746 31.8939H42.1288C42.435 31.8939 42.7285 31.7731 42.945 31.558C43.1615 31.343 43.2831 31.0513 43.2831 30.7471C43.2831 30.443 43.1615 30.1513 42.945 29.9363C42.7285 29.7212 42.435 29.6004 42.1288 29.6004H40.9746V31.8939Z" fill="#03C43C"/>
<defs>
<filter id="filter0_d_823_22536" x="0" y="0.435303" width="68" height="74" filterUnits="userSpaceOnUse" color-interpolation-filters="sRGB">
<feFlood flood-opacity="0" result="BackgroundImageFix"/>
<feColorMatrix in="SourceAlpha" type="matrix" values="0 0 0 0 0 0 0 0 0 0 0 0 0 0 0 0 0 0 127 0" result="hardAlpha"/>
<feOffset/>
<feGaussianBlur stdDeviation="5"/>
<feComposite in2="hardAlpha" operator="out"/>
<feColorMatrix type="matrix" values="0 0 0 0 0.0378125 0 0 0 0 0.275 0 0 0 0 0.0615312 0 0 0 0.25 0"/>
<feBlend mode="normal" in2="BackgroundImageFix" result="effect1_dropShadow_823_22536"/>
<feBlend mode="normal" in="SourceGraphic" in2="effect1_dropShadow_823_22536" result="shape"/>
</filter>
</defs>
</svg>
