<svg width="28" height="29" viewBox="0 0 28 29" fill="none" xmlns="http://www.w3.org/2000/svg">
<g clip-path="url(#clip0_823_22526)">
<g filter="url(#filter0_d_823_22526)">
<circle cx="14" cy="14.4353" r="14" fill="#03C43C"/>
<circle cx="14" cy="14.4353" r="10.5" fill="white"/>
</g>
<path fill-rule="evenodd" clip-rule="evenodd" d="M13.9357 19.2917C13.3551 19.9426 11.7934 20.9497 10.2484 19.5977C7.80146 17.4565 11.5542 13.7581 13.8873 13.653V13.6506C13.9045 13.6506 13.9218 13.6508 13.9391 13.6513C13.9554 13.6509 13.9716 13.6507 13.9877 13.6507V13.6529C16.3208 13.7584 20.0735 17.4678 17.6266 19.6005C16.0783 20.95 14.5134 19.9399 13.9357 19.2917Z" fill="#03C43C"/>
<ellipse cx="8.36285" cy="13.7629" rx="1.63556" ry="1.68277" fill="#03C43C"/>
<ellipse cx="11.7376" cy="10.6628" rx="1.73878" ry="1.78898" fill="#03C43C"/>
<ellipse cx="16.1546" cy="10.6627" rx="1.73872" ry="1.78891" fill="#03C43C"/>
<ellipse cx="19.522" cy="13.7568" rx="1.62965" ry="1.6767" fill="#03C43C"/>
</g>
<defs>
<filter id="filter0_d_823_22526" x="-10" y="-9.5647" width="48" height="48" filterUnits="userSpaceOnUse" color-interpolation-filters="sRGB">
<feFlood flood-opacity="0" result="BackgroundImageFix"/>
<feColorMatrix in="SourceAlpha" type="matrix" values="0 0 0 0 0 0 0 0 0 0 0 0 0 0 0 0 0 0 127 0" result="hardAlpha"/>
<feOffset/>
<feGaussianBlur stdDeviation="5"/>
<feComposite in2="hardAlpha" operator="out"/>
<feColorMatrix type="matrix" values="0 0 0 0 0.0378125 0 0 0 0 0.275 0 0 0 0 0.0615312 0 0 0 0.25 0"/>
<feBlend mode="normal" in2="BackgroundImageFix" result="effect1_dropShadow_823_22526"/>
<feBlend mode="normal" in="SourceGraphic" in2="effect1_dropShadow_823_22526" result="shape"/>
</filter>
<clipPath id="clip0_823_22526">
<rect width="28" height="28" fill="white" transform="translate(0 0.435303)"/>
</clipPath>
</defs>
</svg>
