<svg width="44" height="44" viewBox="0 0 44 44" fill="none" xmlns="http://www.w3.org/2000/svg">
<ellipse cx="21.9961" cy="22" rx="21.9961" ry="22" fill="#FFC102"/>
<path d="M36.2981 21.4136C37.5899 20.7676 38.406 19.4469 38.406 18.0026V17.6109C38.406 15.5042 36.699 13.7969 34.5926 13.7969C32.9512 13.7969 31.4944 14.8474 30.9751 16.4045C30.5814 17.5853 30.3805 18.7188 29.0215 18.7188H14.9826C13.579 18.7188 13.3637 17.4094 13.029 16.4045C12.5102 14.8474 11.0529 13.7969 9.41197 13.7969C7.30564 13.7969 5.59863 15.5042 5.59863 17.6109V18.0026C5.59863 19.4469 6.41471 20.7676 7.7065 21.4136C8.1899 21.6551 8.1899 22.3452 7.7065 22.5867C6.41471 23.2327 5.59863 24.5534 5.59863 25.9977V26.3894C5.59863 28.4961 7.30564 30.2035 9.41146 30.2035C11.0529 30.2035 12.5097 29.1529 13.029 27.5958C13.4227 26.4151 13.6236 25.2815 14.9826 25.2815H29.0215C30.4251 25.2815 30.6404 26.5909 30.9751 27.5958C31.4944 29.1529 32.9517 30.2035 34.5926 30.2035C36.6984 30.2035 38.4054 28.4961 38.4054 26.3894V25.9977C38.4054 24.5529 37.5894 23.2327 36.2976 22.5867C35.8147 22.3452 35.8147 21.6551 36.2981 21.4136Z" fill="white"/>
</svg>
